<svg version="1.1" id="Layer_1" xmlns="http://www.w3.org/2000/svg" xmlns:xlink="http://www.w3.org/1999/xlink" x="0px" y="0px"
	 width="100%" viewBox="0 0 1640 2095" enable-background="new 0 0 1640 2095" xml:space="preserve">
<path fill="#FEFEFE" opacity="1.000000" stroke="none" 
	d="
M1.000000,821.000000 
	C1.000000,547.333313 1.000000,274.166656 1.000000,1.000000 
	C547.666687,1.000000 1094.333374,1.000000 1641.000000,1.000000 
	C1641.000000,699.333313 1641.000000,1397.666626 1641.000000,2096.000000 
	C1094.333374,2096.000000 547.666687,2096.000000 1.000000,2096.000000 
	C1.000000,1671.166626 1.000000,1246.333374 1.000000,821.000000 
M761.121948,1475.370850 
	C769.038635,1490.717407 777.028503,1506.026978 784.831177,1521.431274 
	C787.443787,1526.589233 790.319458,1531.789795 791.806580,1537.312378 
	C798.968933,1563.910400 805.699158,1590.624756 812.580750,1617.298218 
	C826.594299,1671.616455 840.606323,1725.935059 853.610657,1780.134888 
	C845.816101,1779.772583 838.023926,1779.343750 830.226440,1779.060913 
	C810.805603,1778.356323 791.378906,1777.073853 771.960571,1777.174683 
	C715.377930,1777.468750 658.796692,1778.225952 602.218262,1779.031860 
	C587.455078,1779.242188 572.696899,1780.169800 557.949036,1780.993408 
	C542.723572,1781.843750 527.492859,1782.728638 512.301758,1784.032471 
	C491.853119,1785.787476 471.364868,1787.394897 451.033539,1790.112549 
	C431.540344,1792.718140 412.107788,1796.113281 392.884979,1800.258057 
	C383.953888,1802.183838 375.373047,1806.265625 367.037720,1810.221680 
	C362.110352,1812.560425 361.979218,1816.560791 365.926636,1820.333496 
	C368.160248,1822.468628 370.788910,1824.689819 373.643646,1825.587036 
	C384.540649,1829.011841 395.437256,1832.858154 406.636749,1834.809814 
	C427.968445,1838.527466 449.479340,1841.278687 470.970825,1843.996338 
	C486.890686,1846.009399 502.880127,1847.538208 518.870850,1848.905762 
	C533.732117,1850.176514 548.626587,1851.138550 563.523865,1851.890381 
	C581.104309,1852.777466 598.702087,1853.331909 616.295044,1853.955200 
	C627.588135,1854.355469 638.887146,1854.931885 650.181396,1854.888550 
	C690.136536,1854.735229 730.093018,1854.520142 770.044312,1853.982666 
	C791.637756,1853.692383 813.225281,1852.795166 834.808655,1851.988892 
	C847.072571,1851.530762 859.335449,1850.881348 871.576233,1850.003540 
	C892.890137,1848.474976 914.238892,1847.188965 935.476013,1844.900635 
	C958.163696,1842.456299 980.872192,1839.708740 1003.314270,1835.665161 
	C1017.071289,1833.186523 1030.462158,1828.365723 1043.745483,1823.805054 
	C1046.711548,1822.786743 1050.175781,1818.561279 1050.376221,1815.606567 
	C1050.539307,1813.202148 1046.649414,1809.474243 1043.723999,1808.076904 
	C1022.785645,1798.074829 1000.042236,1795.142456 977.342224,1791.037720 
	C978.251648,1782.028442 975.238403,1774.348511 969.321350,1767.704712 
	C962.373901,1759.903320 953.554504,1755.061401 943.725037,1751.963745 
	C927.455566,1746.836792 911.034424,1746.744385 894.459778,1751.066650 
	C894.059143,1749.912354 893.670654,1749.004028 893.426208,1748.058716 
	C877.257935,1685.523926 860.850708,1623.049561 845.062744,1560.418823 
	C838.429443,1534.104248 831.340210,1508.198364 817.340271,1484.534790 
	C809.326660,1470.989868 802.900757,1456.505493 796.074341,1441.775513 
	C800.468872,1438.574341 804.873474,1435.386841 809.256104,1432.169434 
	C823.720825,1421.549927 835.656555,1408.365112 845.863770,1393.822144 
	C853.350708,1383.154907 859.312683,1371.416992 865.946289,1360.151367 
	C875.725037,1343.544312 881.604187,1325.269043 887.783264,1307.218506 
	C892.426636,1293.653809 895.764038,1279.594116 898.926941,1265.584106 
	C901.942444,1252.227051 904.227417,1238.688232 906.381104,1225.157471 
	C908.846069,1209.671021 911.083679,1194.136963 912.914062,1178.564209 
	C914.550903,1164.638062 915.499634,1150.631104 916.805359,1135.810547 
	C918.998108,1135.591553 921.196655,1135.145752 923.382263,1135.202393 
	C927.433472,1135.307617 930.225403,1133.689453 930.883484,1129.660156 
	C931.516418,1125.784180 929.914246,1122.949341 925.839661,1121.851196 
	C924.440186,1121.473877 923.113464,1120.826538 922.145142,1119.622681 
	C925.701721,1108.230835 929.492737,1096.905640 932.758545,1085.430908 
	C937.335022,1069.350830 941.520447,1053.159546 946.309326,1036.404907 
	C947.237427,1032.288940 948.165527,1028.172974 949.625488,1023.531494 
	C957.773499,984.497803 966.044983,945.489258 973.996521,906.415588 
	C976.478271,894.220642 978.096008,881.849854 980.709412,869.895264 
	C992.703186,880.695618 1004.712646,891.478638 1016.687866,902.299500 
	C1051.382812,933.650085 1086.037109,965.045959 1120.766846,996.358032 
	C1131.878174,1006.375916 1144.775391,1008.616150 1158.871582,1004.172424 
	C1167.663086,1001.401184 1173.953247,995.462952 1179.016235,987.881348 
	C1208.762573,943.337341 1238.579224,898.840210 1268.449097,854.378967 
	C1270.653198,851.098145 1273.227295,847.988586 1276.026123,845.197205 
	C1292.547485,828.720703 1304.157837,809.331116 1309.454712,786.629578 
	C1312.631348,773.015442 1313.963623,759.139832 1298.461548,750.515991 
	C1301.402100,745.933594 1304.257080,741.484680 1307.802612,737.097717 
	C1310.456909,738.777283 1313.241089,740.286194 1315.731445,742.181274 
	C1318.602417,744.365723 1320.505249,744.150513 1322.468872,740.955322 
	C1327.513550,732.746643 1332.750000,724.654541 1337.979248,716.560730 
	C1363.231323,677.474915 1388.551025,638.432739 1413.758911,599.318359 
	C1433.200928,569.151184 1452.456299,538.863647 1471.897827,508.696167 
	C1493.960449,474.461609 1516.147339,440.307098 1538.253906,406.100891 
	C1541.004272,401.845154 1543.594116,397.485748 1546.680420,392.491455 
	C1544.843506,392.727600 1543.917480,392.846649 1542.567993,392.471252 
	C1541.794434,392.609497 1540.942749,392.584076 1540.258667,392.909973 
	C1524.415771,400.458008 1508.166260,407.283508 1492.875732,415.824707 
	C1475.543579,425.506287 1458.684570,436.168091 1442.346313,447.455292 
	C1428.055542,457.327911 1414.501465,468.332245 1401.118164,479.434692 
	C1387.213745,490.969391 1373.496582,502.793518 1360.423340,515.252502 
	C1335.749023,538.767517 1312.719116,563.865234 1291.213745,590.330444 
	C1282.856323,600.615417 1274.388916,610.826843 1266.438599,621.422180 
	C1258.302368,632.265503 1250.651367,643.478088 1242.950195,654.640991 
	C1236.490479,664.004089 1230.264648,673.528442 1223.779053,683.214600 
	C1230.269775,687.402710 1236.208496,691.336914 1242.253052,695.100891 
	C1246.703613,697.872131 1251.292725,700.421021 1256.213623,703.617493 
	C1258.138428,705.071960 1260.063354,706.526428 1261.678833,708.584656 
	C1254.101807,720.325317 1246.585571,732.106079 1238.889038,743.768005 
	C1237.572998,745.762207 1235.768799,747.763123 1233.712646,748.888489 
	C1216.233521,758.454468 1206.911255,773.164124 1205.098511,792.903687 
	C1204.882812,795.250977 1204.039307,797.759521 1202.788940,799.756409 
	C1195.990967,810.612427 1188.915894,821.294495 1182.049072,832.108093 
	C1175.398560,842.580811 1176.239380,856.150513 1184.956909,864.774292 
	C1189.018799,868.792603 1194.666748,871.207642 1199.961060,874.582214 
	C1182.019287,901.365295 1163.545776,928.941956 1144.905273,956.768005 
	C1121.836060,935.903992 1099.257324,915.464355 1076.657104,895.048706 
	C1046.884766,868.154175 1017.095642,841.278320 986.982361,813.695374 
	C986.854065,812.117615 986.725708,810.539856 986.838745,808.100403 
	C987.876709,789.349792 989.414368,770.610779 989.849731,751.846191 
	C990.785767,711.499207 987.897095,671.445801 978.753601,631.249695 
	C977.472778,627.158813 976.191956,623.067932 975.064697,618.189453 
	C970.393494,604.547119 966.492798,590.580322 960.909363,577.322144 
	C942.780640,534.274414 915.102539,498.789093 875.122070,473.877594 
	C863.618530,466.709808 851.091980,461.183868 839.141113,454.080536 
	C843.548828,405.106018 844.631775,356.038086 842.902588,306.915039 
	C840.996948,252.781219 835.545227,198.986237 824.660278,145.906082 
	C819.224304,119.397568 812.193176,93.199577 805.313049,67.010994 
	C802.016846,54.463928 789.905701,47.181114 777.631653,49.499981 
	C744.631897,55.734440 711.646057,62.048744 678.703796,68.579025 
	C661.985107,71.893280 653.898376,86.440498 659.474060,102.524605 
	C679.418030,160.057297 695.532410,218.659714 708.503052,278.135376 
	C709.186890,281.271240 708.921326,284.614227 708.788574,287.200409 
	C704.237854,276.165527 699.830322,265.069031 695.112183,254.106171 
	C671.518738,199.285858 643.619141,146.789017 609.980835,97.430984 
	C601.951538,85.649513 588.246216,82.626152 575.638977,89.471436 
	C545.827881,105.657913 516.033752,121.875618 486.250061,138.112564 
	C470.963684,146.446106 467.397919,163.503632 477.858215,177.537018 
	C511.711151,222.953827 542.867981,270.165588 571.660278,318.937134 
	C576.704102,327.480896 581.273132,336.304901 585.368591,345.250305 
	C561.979248,319.946869 539.059875,294.187500 515.075500,269.461243 
	C488.149323,241.702225 458.610535,216.768951 427.815582,193.367752 
	C414.468628,183.225357 401.128998,184.631744 389.716888,197.031128 
	C367.506409,221.162979 345.292389,245.291763 323.014923,269.361694 
	C310.168335,283.241943 311.720795,300.110016 327.197174,310.810822 
	C413.476990,370.467163 493.262970,437.772980 565.900208,513.973083 
	C565.448425,514.651367 565.081177,515.408569 564.532654,515.996643 
	C546.887634,534.914001 533.349121,556.464600 523.518616,580.341675 
	C516.937927,596.325317 511.625183,612.707703 508.670441,630.543030 
	C508.119415,634.067688 507.568390,637.592346 506.707336,641.854126 
	C505.282928,658.593201 503.052155,675.310303 502.596863,692.075684 
	C501.550293,730.616516 505.616547,768.879395 510.526825,807.052979 
	C512.096252,819.253784 513.459229,831.481079 514.343811,844.082031 
	C492.810211,873.901978 471.312561,903.747925 449.728485,933.531250 
	C438.223297,949.406982 426.568634,965.174377 414.655762,980.837891 
	C414.655762,980.837891 414.304382,980.914490 414.177948,979.996155 
	C414.171936,941.357971 414.158051,902.719727 414.171814,864.081543 
	C414.173218,860.092163 414.339111,856.102783 415.143585,852.099609 
	C421.993286,849.256409 428.843018,846.413147 436.431732,843.263245 
	C433.058594,836.202026 429.885010,829.558594 426.980560,822.282410 
	C431.959320,815.674194 437.815491,809.548889 441.764526,802.373962 
	C458.593353,771.798157 446.648773,737.821289 415.499298,726.289734 
	C405.316498,722.519958 394.755890,722.037354 383.962280,722.071045 
	C381.959076,717.160400 380.022186,712.221497 377.941681,707.343872 
	C365.777802,678.825806 353.546112,650.336670 341.408722,621.807373 
	C335.506226,607.933350 329.758881,593.993347 324.359619,579.506775 
	C332.087769,576.096863 339.780334,572.603394 347.552582,569.297119 
	C358.457275,564.658325 363.862152,554.533508 360.968567,543.182861 
	C359.301117,536.641968 356.991241,530.267883 355.147064,523.768555 
	C349.377136,503.433563 343.707550,483.070129 337.967499,462.726654 
	C333.342712,446.335754 328.318512,430.047424 324.134705,413.545471 
	C320.837158,400.539276 304.129639,394.632629 293.111328,399.863312 
	C282.935547,404.693970 272.505096,408.994476 262.138702,413.415649 
	C252.243515,417.635864 242.249451,421.624817 232.364624,425.868622 
	C216.209854,432.804291 200.223114,440.145752 183.946289,446.778015 
	C172.061676,451.620667 166.597427,466.540131 172.680634,477.927521 
	C177.113464,486.225525 182.071686,494.246277 186.894547,502.331696 
	C194.107910,514.424622 201.505432,526.408447 208.648651,538.542297 
	C219.560165,557.077087 230.142029,575.808716 241.262650,594.215820 
	C244.354965,599.334229 249.337418,602.508911 255.502945,604.249817 
	C262.938660,606.349487 268.773102,602.973328 275.031769,600.484924 
	C281.326477,597.982178 287.632874,595.508789 294.071442,593.734192 
	C295.315582,596.453125 296.622131,599.145508 297.794403,601.895081 
	C312.830017,637.161011 327.879761,672.421021 342.843231,707.717529 
	C346.393127,716.091125 349.637512,724.594299 352.604919,733.561157 
	C349.745575,737.300598 345.393127,740.677734 344.377075,744.864441 
	C342.855927,751.132874 342.684631,758.127319 343.696655,764.535461 
	C346.474670,782.126099 354.626862,797.554871 365.335907,811.583618 
	C367.949799,815.007690 368.902649,818.315308 368.896484,822.500061 
	C368.800140,887.778442 368.868256,953.057068 368.788330,1018.335510 
	C368.775818,1028.553955 371.964447,1037.324341 379.491913,1044.221191 
	C394.546539,1058.014282 417.359833,1055.828857 429.459930,1039.205933 
	C460.778839,996.180908 491.903351,953.014343 523.715637,910.445129 
	C524.531860,917.944519 525.348083,925.443909 525.980164,933.844360 
	C526.315002,937.247253 526.649780,940.650085 526.858948,944.972900 
	C527.915955,988.261536 528.973022,1031.550171 529.238159,1075.187500 
	C526.513245,1075.453613 523.791992,1075.889771 521.062683,1075.947632 
	C516.514099,1076.044067 514.064087,1078.124634 513.989502,1082.293091 
	C513.916321,1086.384277 516.412292,1088.957275 520.785950,1089.163452 
	C523.764404,1089.303833 526.749451,1089.306030 529.721802,1090.159790 
	C528.475098,1118.432129 527.563049,1146.724365 525.878723,1174.970703 
	C524.462036,1198.727539 522.683105,1222.490112 520.072083,1246.140625 
	C517.663330,1267.959961 514.019897,1289.646484 510.747070,1311.365356 
	C509.361847,1320.557983 507.533844,1329.684082 505.285065,1339.093140 
	C450.963287,1384.427246 396.628815,1429.746216 342.363373,1475.147583 
	C340.038635,1477.092651 338.546387,1477.286743 335.999725,1475.459473 
	C294.226135,1445.490479 252.345383,1415.670898 210.552612,1385.728638 
	C196.732162,1375.826904 181.933487,1376.790283 170.002823,1388.852051 
	C158.813629,1400.164185 154.037262,1414.357056 152.547470,1429.766968 
	C150.666977,1449.218262 153.864273,1467.602783 165.687912,1483.733398 
	C171.043182,1491.039307 177.852707,1496.609131 187.111725,1498.057983 
	C201.881409,1500.369385 212.353973,1493.090576 219.714691,1481.447266 
	C224.498123,1473.880737 227.500916,1465.188599 231.341217,1456.915161 
	C232.118134,1457.459839 233.608276,1458.490479 235.084015,1459.541382 
	C262.868347,1479.325195 290.636139,1499.132202 318.440094,1518.888428 
	C333.023254,1529.250854 349.176727,1528.670288 362.984131,1517.246704 
	C377.605408,1505.149780 392.125580,1492.930664 406.709625,1480.788696 
	C436.772339,1455.760254 466.848145,1430.747559 497.123871,1406.450439 
	C497.177582,1406.946655 497.231293,1407.442749 497.056000,1408.789917 
	C496.816254,1412.214111 496.576477,1415.638428 496.141663,1419.931152 
	C495.650391,1429.071167 495.009979,1438.206055 494.694183,1447.352051 
	C493.486664,1482.320679 495.788452,1516.902710 507.134186,1550.337769 
	C514.561951,1572.226807 526.855042,1590.548340 547.551453,1603.292847 
	C561.249634,1611.715942 576.153137,1614.636963 591.967651,1612.447144 
	C613.590942,1609.452881 632.231689,1599.208740 650.181885,1587.569458 
	C688.974365,1562.415283 719.982178,1529.274292 747.356323,1492.433472 
	C751.787598,1486.469849 756.341370,1480.597168 761.121948,1475.370850 
z"/>
<path fill="#E8731C" opacity="1.000000" stroke="none" 
	d="
M509.126099,629.891663 
	C511.625183,612.707703 516.937927,596.325317 523.518616,580.341675 
	C533.349121,556.464600 546.887634,534.914001 564.532654,515.996643 
	C565.081177,515.408569 565.448425,514.651367 566.313477,513.559937 
	C568.217712,511.842194 569.784546,510.613953 571.187805,509.220947 
	C584.350464,496.154297 599.146301,485.259003 615.627319,476.016113 
	C637.518860,474.342377 658.727722,477.064117 680.078918,479.319916 
	C667.012939,474.994781 653.772705,471.543488 640.568848,467.958038 
	C638.691772,467.448334 636.991577,466.287506 635.537231,465.270386 
	C638.917053,463.714996 641.969116,462.317230 645.386536,460.907318 
	C653.494568,458.262390 661.237366,455.629608 669.249390,453.285034 
	C676.684937,454.716003 683.869019,455.757782 691.014038,457.020813 
	C710.371094,460.442505 728.950134,466.463715 746.855652,474.476379 
	C766.213379,483.138885 783.595459,494.768982 799.581909,508.817627 
	C816.478943,523.666382 830.240723,540.882446 841.588379,559.927185 
	C826.980652,557.884949 812.791565,555.789490 798.404724,553.664856 
	C797.613098,558.346497 797.193542,562.146790 796.291565,565.828857 
	C795.158142,570.455505 796.521179,572.935669 801.364380,573.862732 
	C804.761292,574.512939 808.014038,575.929016 811.321167,577.032837 
	C827.544006,582.447571 843.763489,587.872253 859.985840,593.674927 
	C860.094849,594.877502 860.056580,595.751404 860.332520,596.511169 
	C862.873840,603.508057 866.107971,610.323425 867.925476,617.499329 
	C872.716431,636.415833 877.737061,655.340576 881.077393,674.538513 
	C884.130432,692.085388 886.384949,709.971924 886.695068,727.748779 
	C887.169861,754.970154 885.897949,782.234070 884.913574,809.463501 
	C884.453613,822.186462 883.362976,834.924683 881.792175,847.560791 
	C879.204590,868.377075 876.430908,889.189636 872.938843,909.869202 
	C868.371155,936.918701 863.763306,964.000244 857.824585,990.768921 
	C851.053101,1021.291748 842.804932,1051.487183 835.182312,1081.820923 
	C833.489624,1088.556641 831.729248,1095.275269 829.580200,1102.046143 
	C809.784485,1099.113525 790.462341,1095.709473 771.020142,1093.258545 
	C740.687378,1089.434814 710.330627,1085.582520 679.878235,1082.982544 
	C644.279846,1079.943237 608.576477,1078.083862 572.900757,1076.024292 
	C558.635193,1075.200684 544.321716,1075.209106 530.030029,1074.838745 
	C528.973022,1031.550171 527.915955,988.261536 527.305725,944.441040 
	C544.155518,940.106506 560.558533,936.303772 575.053833,932.943298 
	C559.994995,932.943298 543.079590,932.943298 526.164307,932.943298 
	C525.348083,925.443909 524.531860,917.944519 523.433533,909.813721 
	C523.273010,908.368164 523.579956,907.532654 523.488464,906.743225 
	C521.923035,893.231812 520.431824,879.709961 518.655945,866.225647 
	C517.662598,858.682556 516.179199,851.203918 514.916626,843.696289 
	C513.459229,831.481079 512.096252,819.253784 510.526825,807.052979 
	C505.616547,768.879395 501.550293,730.616516 502.596863,692.075684 
	C503.052155,675.310303 505.282928,658.593201 507.259827,641.463867 
	C512.235413,639.708130 516.585205,637.996826 521.095032,637.040039 
	C536.600952,633.750183 552.162964,630.724182 565.622192,628.016479 
	C548.233215,625.814880 528.664062,627.171265 509.126099,629.891663 
M832.975830,962.912476 
	C828.779602,948.350464 824.583374,933.788391 820.157166,918.349670 
	C819.471008,897.880676 818.784851,877.411621 818.234070,856.150269 
	C819.029175,849.157288 819.824341,842.164307 820.663879,834.780579 
	C818.836243,835.107483 817.714417,835.321106 816.588135,835.507568 
	C805.617371,837.323853 794.708130,839.943970 783.662720,840.795410 
	C751.812134,843.250610 720.610413,839.170837 690.091614,829.739929 
	C688.855225,829.357910 686.560791,829.280762 686.110535,829.958801 
	C681.847168,836.379272 677.877075,842.994568 673.187866,849.887207 
	C672.192139,851.580139 670.987976,853.185303 670.232117,854.979309 
	C659.857788,879.602173 655.223389,905.450439 653.375916,932.618713 
	C653.241577,939.704285 653.047424,946.789490 652.994324,953.875671 
	C652.960144,958.433228 653.133423,962.992249 653.063477,968.398987 
	C653.200134,974.719971 653.045776,981.068604 653.643066,987.345703 
	C653.832642,989.338074 655.587524,992.002625 657.364380,992.903625 
	C714.265625,1021.758667 770.889282,1020.502380 827.066589,990.781067 
	C832.685486,987.808350 837.902344,984.075867 843.279358,980.712524 
	C839.495911,974.428589 836.249023,969.035828 832.975830,962.912476 
M675.758484,775.766785 
	C681.845276,774.368347 688.266724,773.769775 693.944946,771.394531 
	C703.834473,767.257812 710.296570,759.008362 715.485229,749.911255 
	C726.115356,731.273438 728.823975,710.973206 726.528442,690.044250 
	C724.551270,672.017700 718.680786,655.293762 705.738770,641.893311 
	C695.475403,631.266418 683.258911,626.037048 668.308777,629.788269 
	C655.699768,632.951965 646.736877,641.265747 640.713989,652.118286 
	C622.295166,685.306824 622.563660,718.951904 640.995728,751.986938 
	C648.229004,764.950806 659.333984,773.882874 675.758484,775.766785 
M860.161133,750.643188 
	C870.801514,732.379333 873.658386,712.448059 871.774963,691.835449 
	C870.108032,673.591370 864.283142,656.751221 851.752441,642.766174 
	C837.579224,626.948059 816.829895,623.731201 800.705200,635.901123 
	C794.740723,640.402710 789.348633,646.394531 785.460205,652.781128 
	C772.482239,674.096680 770.212769,697.509033 774.518311,721.678223 
	C777.344727,737.544495 783.507385,751.948059 795.154114,763.552856 
	C809.044312,777.393005 827.858398,780.008911 843.230408,768.956543 
	C849.668579,764.327576 854.348389,757.253174 860.161133,750.643188 
M614.829834,582.802734 
	C615.604492,587.830627 616.379089,592.858521 617.229004,598.375000 
	C621.222412,597.130859 624.536255,596.145691 627.819641,595.067810 
	C650.060242,587.766602 672.309387,580.490295 694.496399,573.029358 
	C695.947266,572.541443 697.981750,570.522217 697.906677,569.331116 
	C697.587646,564.267456 696.575745,559.247437 695.718872,553.561279 
	C667.623962,557.828674 640.150024,562.001770 612.240662,566.241028 
	C613.099426,571.850769 613.872131,576.898132 614.829834,582.802734 
M640.427856,793.738708 
	C635.969238,795.495422 631.202271,796.724915 627.114380,799.115540 
	C617.803345,804.560547 616.638611,816.012268 624.188782,823.718872 
	C634.086304,833.821472 652.802002,834.958557 665.630249,826.236511 
	C676.170227,819.070435 676.338379,806.117859 665.877502,798.954773 
	C658.437317,793.860046 650.153748,792.128540 640.427856,793.738708 
M843.983215,802.133118 
	C840.915222,803.790894 837.651794,805.170166 834.816162,807.159241 
	C826.631836,812.900452 825.751770,823.891479 832.687866,831.145935 
	C843.557190,842.513977 868.943176,841.629028 878.864075,829.536133 
	C883.667786,823.680664 883.277283,815.018250 878.113953,809.482361 
	C868.691162,799.379700 856.934631,799.825439 843.983215,802.133118 
z"/>
<path fill="#DD5310" opacity="1.000000" stroke="none" 
	d="
M842.007080,559.873962 
	C830.240723,540.882446 816.478943,523.666382 799.581909,508.817627 
	C783.595459,494.768982 766.213379,483.138885 746.855652,474.476379 
	C728.950134,466.463715 710.371094,460.442505 691.014038,457.020813 
	C683.869019,455.757782 676.684937,454.716003 669.473267,452.995514 
	C670.021057,452.119751 670.583984,451.673187 671.211792,451.545288 
	C692.135315,447.282288 713.065125,443.049744 734.439209,438.876099 
	C746.647583,438.974579 758.459778,438.356628 770.159729,439.234314 
	C781.172974,440.060486 792.216614,441.827087 802.975342,444.341766 
	C815.152771,447.187988 827.027893,451.327820 839.034424,454.905182 
	C851.091980,461.183868 863.618530,466.709808 875.122070,473.877594 
	C915.102539,498.789093 942.780640,534.274414 960.909363,577.322144 
	C966.492798,590.580322 970.393494,604.547119 974.578003,618.586609 
	C943.703552,612.272949 912.901611,612.446350 882.052612,613.366455 
	C898.267761,615.387756 914.673157,616.326965 930.669861,619.396484 
	C946.879578,622.506958 962.685303,627.723022 978.667969,632.016785 
	C987.897095,671.445801 990.785767,711.499207 989.849731,751.846191 
	C989.414368,770.610779 987.876709,789.349792 986.287903,808.549316 
	C963.889709,807.641296 942.051392,807.210022 920.228027,809.549194 
	C925.627991,810.360779 931.077148,810.576172 936.437378,811.382629 
	C947.861389,813.101257 959.287720,814.883606 970.613770,817.138672 
	C975.569885,818.125488 980.282532,820.335571 985.107727,822.443420 
	C984.530762,828.469360 983.968872,834.043823 983.369202,839.614258 
	C982.294556,849.597290 981.197205,859.577942 980.109375,869.559570 
	C978.096008,881.849854 976.478271,894.220642 973.996521,906.415588 
	C966.044983,945.489258 957.773499,984.497803 948.955444,1023.784302 
	C944.018372,1022.718445 939.835205,1020.877747 935.469116,1020.177185 
	C921.281250,1017.900696 907.033386,1015.990112 892.789673,1014.080200 
	C890.773987,1013.809937 888.652832,1014.326294 886.580566,1014.478577 
	C892.494507,1016.618103 898.365295,1017.570557 904.097229,1019.058533 
	C918.922302,1022.907043 933.452759,1027.532837 945.873169,1037.015747 
	C941.520447,1053.159546 937.335022,1069.350830 932.758545,1085.430908 
	C929.492737,1096.905640 925.701721,1108.230835 921.550232,1119.922241 
	C901.665894,1116.267578 882.385803,1112.266968 863.083435,1108.377075 
	C852.074463,1106.158447 841.028992,1104.120850 830.000000,1102.001831 
	C831.729248,1095.275269 833.489624,1088.556641 835.182312,1081.820923 
	C842.804932,1051.487183 851.053101,1021.291748 857.824585,990.768921 
	C863.763306,964.000244 868.371155,936.918701 872.938843,909.869202 
	C876.430908,889.189636 879.204590,868.377075 881.792175,847.560791 
	C883.362976,834.924683 884.453613,822.186462 884.913574,809.463501 
	C885.897949,782.234070 887.169861,754.970154 886.695068,727.748779 
	C886.384949,709.971924 884.130432,692.085388 881.077393,674.538513 
	C877.737061,655.340576 872.716431,636.415833 867.925476,617.499329 
	C866.107971,610.323425 862.873840,603.508057 860.332520,596.511169 
	C860.056580,595.751404 860.094849,594.877502 860.347961,593.676758 
	C865.864990,594.944702 871.021484,596.592346 876.848877,598.454407 
	C878.309570,589.355957 879.869019,581.059570 880.912964,572.698853 
	C881.774231,565.800415 881.473450,565.981934 874.460144,564.990356 
	C863.618042,563.457336 852.822449,561.596069 842.007080,559.873962 
z"/>
<path fill="#EFEFEE" opacity="1.000000" stroke="none" 
	d="
M916.752014,1136.659790 
	C915.499634,1150.631104 914.550903,1164.638062 912.914062,1178.564209 
	C911.083679,1194.136963 908.846069,1209.671021 906.381104,1225.157471 
	C904.227417,1238.688232 901.942444,1252.227051 898.926941,1265.584106 
	C895.764038,1279.594116 892.426636,1293.653809 887.783264,1307.218506 
	C881.604187,1325.269043 875.725037,1343.544312 865.946289,1360.151367 
	C859.312683,1371.416992 853.350708,1383.154907 845.863770,1393.822144 
	C835.656555,1408.365112 823.720825,1421.549927 809.256104,1432.169434 
	C804.873474,1435.386841 800.468872,1438.574341 795.572998,1441.950684 
	C788.314941,1445.133179 781.558228,1448.140747 774.440369,1451.131226 
	C743.533264,1461.966553 712.506531,1460.453247 681.000854,1454.489014 
	C649.762085,1448.184326 619.920776,1439.183716 593.433655,1421.391235 
	C566.665771,1403.410522 549.173157,1379.068481 542.675598,1347.134644 
	C536.976013,1319.123047 539.996521,1291.474365 545.548950,1263.886108 
	C550.796448,1237.812500 556.970520,1211.885498 561.096558,1185.636230 
	C566.121643,1153.667725 565.220276,1121.585449 558.250244,1089.744385 
	C570.033569,1089.922852 581.359070,1090.066650 592.664795,1090.617065 
	C605.447937,1091.239258 618.213196,1092.226318 631.044495,1093.445923 
	C632.390015,1101.166992 634.465332,1108.459229 634.818848,1115.833984 
	C635.943481,1139.292847 634.626587,1162.632568 629.044250,1185.570923 
	C623.750488,1207.323364 618.004944,1229.012085 619.024048,1251.708618 
	C619.644165,1265.518188 622.963867,1278.668579 630.120789,1290.554077 
	C641.219971,1308.986450 657.948242,1320.551025 677.602722,1328.336914 
	C692.624939,1334.288086 708.175964,1337.980835 724.170898,1340.368408 
	C736.292664,1342.177612 748.326904,1342.769653 760.310303,1340.644165 
	C787.800415,1335.768677 808.601990,1320.478271 824.548401,1298.064087 
	C843.798218,1271.006470 853.948730,1240.186768 860.930847,1208.206543 
	C866.697083,1181.795776 869.987061,1155.008911 871.064758,1127.969482 
	C871.111877,1126.787720 872.011475,1125.639893 872.908325,1124.514648 
	C886.127258,1127.308960 898.976624,1129.958862 911.749084,1132.938354 
	C913.605103,1133.371338 915.093506,1135.380127 916.752014,1136.659790 
z"/>
<path fill="#5C8621" opacity="1.000000" stroke="none" 
	d="
M839.087769,454.492859 
	C827.027893,451.327820 815.152771,447.187988 802.975342,444.341766 
	C792.216614,441.827087 781.172974,440.060486 770.159729,439.234314 
	C758.459778,438.356628 746.647583,438.974579 734.437744,438.461304 
	C732.625488,425.158020 731.665222,412.273712 729.805298,399.520599 
	C726.490540,376.792114 722.972412,354.081238 718.878845,331.482666 
	C716.224976,316.832184 712.398682,302.394043 709.097717,287.860779 
	C708.921326,284.614227 709.186890,281.271240 708.503052,278.135376 
	C695.532410,218.659714 679.418030,160.057297 659.474060,102.524605 
	C653.898376,86.440498 661.985107,71.893280 678.703796,68.579025 
	C711.646057,62.048744 744.631897,55.734440 777.631653,49.499981 
	C789.905701,47.181114 802.016846,54.463928 805.313049,67.010994 
	C812.193176,93.199577 819.224304,119.397568 824.660278,145.906082 
	C835.545227,198.986237 840.996948,252.781219 842.902588,306.915039 
	C844.631775,356.038086 843.548828,405.106018 839.087769,454.492859 
z"/>
<path fill="#435B1F" opacity="1.000000" stroke="none" 
	d="
M708.943115,287.530579 
	C712.398682,302.394043 716.224976,316.832184 718.878845,331.482666 
	C722.972412,354.081238 726.490540,376.792114 729.805298,399.520599 
	C731.665222,412.273712 732.625488,425.158020 733.992554,438.397980 
	C713.065125,443.049744 692.135315,447.282288 671.211792,451.545288 
	C670.583984,451.673187 670.021057,452.119751 669.203979,452.707275 
	C661.237366,455.629608 653.494568,458.262390 645.374573,460.536316 
	C644.859924,459.533203 644.847839,458.827820 644.567139,458.253693 
	C635.428223,439.560974 626.605896,420.702759 617.006104,402.249115 
	C607.416382,383.814728 597.044556,365.787201 587.050293,347.172607 
	C586.700623,346.157074 586.316284,345.550232 585.973938,344.935120 
	C586.015991,344.926788 586.061401,344.999512 586.061401,344.999512 
	C581.273132,336.304901 576.704102,327.480896 571.660278,318.937134 
	C542.867981,270.165588 511.711151,222.953827 477.858215,177.537018 
	C467.397919,163.503632 470.963684,146.446106 486.250061,138.112564 
	C516.033752,121.875618 545.827881,105.657913 575.638977,89.471436 
	C588.246216,82.626152 601.951538,85.649513 609.980835,97.430984 
	C643.619141,146.789017 671.518738,199.285858 695.112183,254.106171 
	C699.830322,265.069031 704.237854,276.165527 708.943115,287.530579 
z"/>
<path fill="#2D3F10" opacity="1.000000" stroke="none" 
	d="
M587.015625,347.581299 
	C597.044556,365.787201 607.416382,383.814728 617.006104,402.249115 
	C626.605896,420.702759 635.428223,439.560974 644.567139,458.253693 
	C644.847839,458.827820 644.859924,459.533203 645.009277,460.548401 
	C641.969116,462.317230 638.917053,463.714996 635.183838,465.272522 
	C628.064697,468.958771 621.626648,472.485199 615.188599,476.011658 
	C599.146301,485.259003 584.350464,496.154297 571.187805,509.220947 
	C569.784546,510.613953 568.217712,511.842194 566.391541,513.238953 
	C493.262970,437.772980 413.476990,370.467163 327.197174,310.810822 
	C311.720795,300.110016 310.168335,283.241943 323.014923,269.361694 
	C345.292389,245.291763 367.506409,221.162979 389.716888,197.031128 
	C401.128998,184.631744 414.468628,183.225357 427.815582,193.367752 
	C458.610535,216.768951 488.149323,241.702225 515.075500,269.461243 
	C539.059875,294.187500 561.979248,319.946869 585.714966,345.124908 
	C586.061401,344.999512 586.015991,344.926788 585.875122,345.305511 
	C586.161316,346.316589 586.588501,346.948944 587.015625,347.581299 
z"/>
<path fill="#D8D8D8" opacity="1.000000" stroke="none" 
	d="
M977.394104,1791.953613 
	C1000.042236,1795.142456 1022.785645,1798.074829 1043.723999,1808.076904 
	C1046.649414,1809.474243 1050.539307,1813.202148 1050.376221,1815.606567 
	C1050.175781,1818.561279 1046.711548,1822.786743 1043.745483,1823.805054 
	C1030.462158,1828.365723 1017.071289,1833.186523 1003.314270,1835.665161 
	C980.872192,1839.708740 958.163696,1842.456299 935.476013,1844.900635 
	C914.238892,1847.188965 892.890137,1848.474976 871.576233,1850.003540 
	C859.335449,1850.881348 847.072571,1851.530762 834.808655,1851.988892 
	C813.225281,1852.795166 791.637756,1853.692383 770.044312,1853.982666 
	C730.093018,1854.520142 690.136536,1854.735229 650.181396,1854.888550 
	C638.887146,1854.931885 627.588135,1854.355469 616.295044,1853.955200 
	C598.702087,1853.331909 581.104309,1852.777466 563.523865,1851.890381 
	C548.626587,1851.138550 533.732117,1850.176514 518.870850,1848.905762 
	C502.880127,1847.538208 486.890686,1846.009399 470.970825,1843.996338 
	C449.479340,1841.278687 427.968445,1838.527466 406.636749,1834.809814 
	C395.437256,1832.858154 384.540649,1829.011841 373.643646,1825.587036 
	C370.788910,1824.689819 368.160248,1822.468628 365.926636,1820.333496 
	C361.979218,1816.560791 362.110352,1812.560425 367.037720,1810.221680 
	C375.373047,1806.265625 383.953888,1802.183838 392.884979,1800.258057 
	C412.107788,1796.113281 431.540344,1792.718140 451.033539,1790.112549 
	C471.364868,1787.394897 491.853119,1785.787476 512.301758,1784.032471 
	C527.492859,1782.728638 542.723572,1781.843750 557.949036,1780.993408 
	C572.696899,1780.169800 587.455078,1779.242188 602.218262,1779.031860 
	C658.796692,1778.225952 715.377930,1777.468750 771.960571,1777.174683 
	C791.378906,1777.073853 810.805603,1778.356323 830.226440,1779.060913 
	C838.023926,1779.343750 845.816101,1779.772583 854.268188,1780.495605 
	C855.777222,1784.232788 856.688171,1787.595581 857.469299,1790.988159 
	C860.075012,1802.303223 866.429993,1811.139648 876.401245,1816.721069 
	C903.413330,1831.840820 930.870972,1832.037720 958.094727,1817.291016 
	C968.106384,1811.867920 975.080139,1803.535645 977.394104,1791.953613 
z"/>
<path fill="#E8741D" opacity="1.000000" stroke="none" 
	d="
M557.783752,1089.889038 
	C565.220276,1121.585449 566.121643,1153.667725 561.096558,1185.636230 
	C556.970520,1211.885498 550.796448,1237.812500 545.548950,1263.886108 
	C539.996521,1291.474365 536.976013,1319.123047 542.675598,1347.134644 
	C549.173157,1379.068481 566.665771,1403.410522 593.433655,1421.391235 
	C619.920776,1439.183716 649.762085,1448.184326 680.619873,1454.585205 
	C679.618896,1455.480835 678.334351,1455.822388 677.802368,1456.648682 
	C671.264343,1466.801514 665.014709,1477.143921 658.327332,1487.195557 
	C652.284180,1496.278687 646.111328,1505.311646 639.414062,1513.913818 
	C632.199585,1523.180298 624.817749,1532.420410 616.601257,1540.779907 
	C602.084595,1555.549316 587.150696,1569.939331 571.849121,1583.893433 
	C564.198059,1590.870850 555.350220,1596.535889 547.043701,1602.794556 
	C526.855042,1590.548340 514.561951,1572.226807 507.134186,1550.337769 
	C495.788452,1516.902710 493.486664,1482.320679 494.694183,1447.352051 
	C495.009979,1438.206055 495.650391,1429.071167 496.644409,1419.457520 
	C518.033020,1417.566162 538.918823,1416.148560 559.061523,1414.781250 
	C539.263977,1410.998901 518.456238,1407.990967 497.285004,1407.938965 
	C497.231293,1407.442749 497.177582,1406.946655 497.106018,1405.705688 
	C497.356567,1404.007568 497.752136,1403.070312 497.873871,1402.098511 
	C499.257843,1391.051270 500.565948,1379.994629 501.963379,1368.949097 
	C503.233826,1358.907227 504.589203,1348.876221 505.907104,1338.840332 
	C507.533844,1329.684082 509.361847,1320.557983 510.747070,1311.365356 
	C514.019897,1289.646484 517.663330,1267.959961 520.072083,1246.140625 
	C522.683105,1222.490112 524.462036,1198.727539 525.878723,1174.970703 
	C527.563049,1146.724365 528.475098,1118.432129 530.210571,1089.701538 
	C539.727478,1089.458496 548.755615,1089.673828 557.783752,1089.889038 
z"/>
<path fill="#26292F" opacity="1.000000" stroke="none" 
	d="
M980.409424,869.727417 
	C981.197205,859.577942 982.294556,849.597290 983.369202,839.614258 
	C983.968872,834.043823 984.530762,828.469360 985.366455,822.150513 
	C986.186646,819.067688 986.750183,816.731079 987.313721,814.394531 
	C1017.095642,841.278320 1046.884766,868.154175 1076.657104,895.048706 
	C1099.257324,915.464355 1121.836060,935.903992 1144.905273,956.768005 
	C1163.545776,928.941956 1182.019287,901.365295 1199.961060,874.582214 
	C1194.666748,871.207642 1189.018799,868.792603 1184.956909,864.774292 
	C1176.239380,856.150513 1175.398560,842.580811 1182.049072,832.108093 
	C1188.915894,821.294495 1195.990967,810.612427 1202.788940,799.756409 
	C1204.039307,797.759521 1204.882812,795.250977 1205.098511,792.903687 
	C1206.911255,773.164124 1216.233521,758.454468 1233.712646,748.888489 
	C1235.768799,747.763123 1237.572998,745.762207 1238.889038,743.768005 
	C1246.585571,732.106079 1254.101807,720.325317 1262.190186,708.291626 
	C1269.970703,712.614746 1277.290283,717.154358 1284.495605,721.868286 
	C1292.091187,726.837402 1299.577759,731.972900 1307.112061,737.035767 
	C1304.257080,741.484680 1301.402100,745.933594 1298.461548,750.515991 
	C1313.963623,759.139832 1312.631348,773.015442 1309.454712,786.629578 
	C1304.157837,809.331116 1292.547485,828.720703 1276.026123,845.197205 
	C1273.227295,847.988586 1270.653198,851.098145 1268.449097,854.378967 
	C1238.579224,898.840210 1208.762573,943.337341 1179.016235,987.881348 
	C1173.953247,995.462952 1167.663086,1001.401184 1158.871582,1004.172424 
	C1144.775391,1008.616150 1131.878174,1006.375916 1120.766846,996.358032 
	C1086.037109,965.045959 1051.382812,933.650085 1016.687866,902.299500 
	C1004.712646,891.478638 992.703186,880.695618 980.409424,869.727417 
z"/>
<path fill="#25282F" opacity="1.000000" stroke="none" 
	d="
M514.630188,843.889160 
	C516.179199,851.203918 517.662598,858.682556 518.655945,866.225647 
	C520.431824,879.709961 521.923035,893.231812 523.488464,906.743225 
	C523.579956,907.532654 523.273010,908.368164 523.128418,909.543274 
	C491.903351,953.014343 460.778839,996.180908 429.459930,1039.205933 
	C417.359833,1055.828857 394.546539,1058.014282 379.491913,1044.221191 
	C371.964447,1037.324341 368.775818,1028.553955 368.788330,1018.335510 
	C368.868256,953.057068 368.800140,887.778442 368.896484,822.500061 
	C368.902649,818.315308 367.949799,815.007690 365.335907,811.583618 
	C354.626862,797.554871 346.474670,782.126099 343.696655,764.535461 
	C342.684631,758.127319 342.855927,751.132874 344.377075,744.864441 
	C345.393127,740.677734 349.745575,737.300598 353.162354,733.240234 
	C363.159119,727.519836 373.380310,724.461975 384.063599,722.788208 
	C394.755890,722.037354 405.316498,722.519958 415.499298,726.289734 
	C446.648773,737.821289 458.593353,771.798157 441.764526,802.373962 
	C437.815491,809.548889 431.959320,815.674194 426.520599,822.655640 
	C422.816193,825.588318 419.469818,828.032776 416.382965,830.769897 
	C415.310425,831.720886 414.293976,833.381409 414.258789,834.743835 
	C414.109375,840.528381 414.338074,846.322693 414.428650,852.113403 
	C414.339111,856.102783 414.173218,860.092163 414.171814,864.081543 
	C414.158051,902.719727 414.171936,941.357971 414.172241,980.704590 
	C414.438141,981.272217 414.709778,981.131409 414.981445,980.990601 
	C426.568634,965.174377 438.223297,949.406982 449.728485,933.531250 
	C471.312561,903.747925 492.810211,873.901978 514.630188,843.889160 
z"/>
<path fill="#EFEFEF" opacity="1.000000" stroke="none" 
	d="
M293.934143,593.022522 
	C287.632874,595.508789 281.326477,597.982178 275.031769,600.484924 
	C268.773102,602.973328 262.938660,606.349487 255.502945,604.249817 
	C249.337418,602.508911 244.354965,599.334229 241.262650,594.215820 
	C230.142029,575.808716 219.560165,557.077087 208.648651,538.542297 
	C201.505432,526.408447 194.107910,514.424622 186.894547,502.331696 
	C182.071686,494.246277 177.113464,486.225525 172.680634,477.927521 
	C166.597427,466.540131 172.061676,451.620667 183.946289,446.778015 
	C200.223114,440.145752 216.209854,432.804291 232.364624,425.868622 
	C242.249451,421.624817 252.243515,417.635864 262.138702,413.415649 
	C272.505096,408.994476 282.935547,404.693970 293.111328,399.863312 
	C304.129639,394.632629 320.837158,400.539276 324.134705,413.545471 
	C328.318512,430.047424 333.342712,446.335754 337.967499,462.726654 
	C343.707550,483.070129 349.377136,503.433563 355.147064,523.768555 
	C356.991241,530.267883 359.301117,536.641968 360.968567,543.182861 
	C363.862152,554.533508 358.457275,564.658325 347.552582,569.297119 
	C339.780334,572.603394 332.087769,576.096863 323.786957,579.812134 
	C316.946777,582.689148 310.641876,585.174500 304.426147,587.865723 
	C300.854187,589.412292 297.426697,591.292542 293.934143,593.022522 
z"/>
<path fill="#26292F" opacity="1.000000" stroke="none" 
	d="
M505.596069,1338.966797 
	C504.589203,1348.876221 503.233826,1358.907227 501.963379,1368.949097 
	C500.565948,1379.994629 499.257843,1391.051270 497.873871,1402.098511 
	C497.752136,1403.070312 497.356567,1404.007568 497.003357,1405.344727 
	C466.848145,1430.747559 436.772339,1455.760254 406.709625,1480.788696 
	C392.125580,1492.930664 377.605408,1505.149780 362.984131,1517.246704 
	C349.176727,1528.670288 333.023254,1529.250854 318.440094,1518.888428 
	C290.636139,1499.132202 262.868347,1479.325195 235.084015,1459.541382 
	C233.608276,1458.490479 232.118134,1457.459839 231.341217,1456.915161 
	C227.500916,1465.188599 224.498123,1473.880737 219.714691,1481.447266 
	C212.353973,1493.090576 201.881409,1500.369385 187.111725,1498.057983 
	C177.852707,1496.609131 171.043182,1491.039307 165.687912,1483.733398 
	C153.864273,1467.602783 150.666977,1449.218262 152.547470,1429.766968 
	C154.037262,1414.357056 158.813629,1400.164185 170.002823,1388.852051 
	C181.933487,1376.790283 196.732162,1375.826904 210.552612,1385.728638 
	C252.345383,1415.670898 294.226135,1445.490479 335.999725,1475.459473 
	C338.546387,1477.286743 340.038635,1477.092651 342.363373,1475.147583 
	C396.628815,1429.746216 450.963287,1384.427246 505.596069,1338.966797 
z"/>
<path fill="#CCCCCC" opacity="1.000000" stroke="none" 
	d="
M1307.457275,737.066772 
	C1299.577759,731.972900 1292.091187,726.837402 1284.495605,721.868286 
	C1277.290283,717.154358 1269.970703,712.614746 1262.344727,707.989746 
	C1260.063354,706.526428 1258.138428,705.071960 1256.097168,702.980957 
	C1257.744629,699.356750 1259.370605,696.276794 1261.295776,693.396912 
	C1270.966919,678.929932 1280.251343,664.173767 1290.541748,650.158142 
	C1308.207153,626.097900 1325.943604,602.046509 1344.721313,578.858643 
	C1362.979614,556.311951 1381.900879,534.211731 1401.793091,513.104797 
	C1420.485718,493.270752 1440.401001,474.521851 1460.582764,456.180603 
	C1475.778564,442.370514 1491.979614,429.615265 1508.238892,417.044525 
	C1519.373169,408.436218 1531.376587,400.952209 1542.991577,392.965637 
	C1543.917480,392.846649 1544.843506,392.727600 1546.680420,392.491455 
	C1543.594116,397.485748 1541.004272,401.845154 1538.253906,406.100891 
	C1516.147339,440.307098 1493.960449,474.461609 1471.897827,508.696167 
	C1452.456299,538.863647 1433.200928,569.151184 1413.758911,599.318359 
	C1388.551025,638.432739 1363.231323,677.474915 1337.979248,716.560730 
	C1332.750000,724.654541 1327.513550,732.746643 1322.468872,740.955322 
	C1320.505249,744.150513 1318.602417,744.365723 1315.731445,742.181274 
	C1313.241089,740.286194 1310.456909,738.777283 1307.457275,737.066772 
z"/>
<path fill="#26292F" opacity="1.000000" stroke="none" 
	d="
M977.368164,1791.495605 
	C975.080139,1803.535645 968.106384,1811.867920 958.094727,1817.291016 
	C930.870972,1832.037720 903.413330,1831.840820 876.401245,1816.721069 
	C866.429993,1811.139648 860.075012,1802.303223 857.469299,1790.988159 
	C856.688171,1787.595581 855.777222,1784.232788 854.772339,1780.554932 
	C840.606323,1725.935059 826.594299,1671.616455 812.580750,1617.298218 
	C805.699158,1590.624756 798.968933,1563.910400 791.806580,1537.312378 
	C790.319458,1531.789795 787.443787,1526.589233 784.831177,1521.431274 
	C777.028503,1506.026978 769.038635,1490.717407 761.033325,1474.691650 
	C761.905579,1472.290161 762.807068,1470.531616 763.837708,1468.852295 
	C767.468445,1462.936279 771.143494,1457.047485 774.801636,1451.148193 
	C781.558228,1448.140747 788.314941,1445.133179 795.415771,1442.284912 
	C802.900757,1456.505493 809.326660,1470.989868 817.340271,1484.534790 
	C831.340210,1508.198364 838.429443,1534.104248 845.062744,1560.418823 
	C860.850708,1623.049561 877.257935,1685.523926 893.426208,1748.058716 
	C893.670654,1749.004028 894.059143,1749.912354 894.459778,1751.066650 
	C911.034424,1746.744385 927.455566,1746.836792 943.725037,1751.963745 
	C953.554504,1755.061401 962.373901,1759.903320 969.321350,1767.704712 
	C975.238403,1774.348511 978.251648,1782.028442 977.368164,1791.495605 
z"/>
<path fill="#DD5310" opacity="1.000000" stroke="none" 
	d="
M774.440430,1451.131226 
	C771.143494,1457.047485 767.468445,1462.936279 763.837708,1468.852295 
	C762.807068,1470.531616 761.905579,1472.290161 760.891663,1474.347412 
	C756.341370,1480.597168 751.787598,1486.469849 747.356323,1492.433472 
	C719.982178,1529.274292 688.974365,1562.415283 650.181885,1587.569458 
	C632.231689,1599.208740 613.590942,1609.452881 591.967651,1612.447144 
	C576.153137,1614.636963 561.249634,1611.715942 547.297607,1603.043701 
	C555.350220,1596.535889 564.198059,1590.870850 571.849121,1583.893433 
	C587.150696,1569.939331 602.084595,1555.549316 616.601257,1540.779907 
	C624.817749,1532.420410 632.199585,1523.180298 639.414062,1513.913818 
	C646.111328,1505.311646 652.284180,1496.278687 658.327332,1487.195557 
	C665.014709,1477.143921 671.264343,1466.801514 677.802368,1456.648682 
	C678.334351,1455.822388 679.618896,1455.480835 680.934753,1454.817871 
	C712.506531,1460.453247 743.533264,1461.966553 774.440430,1451.131226 
z"/>
<path fill="#EFEFEF" opacity="1.000000" stroke="none" 
	d="
M1542.779785,392.718445 
	C1531.376587,400.952209 1519.373169,408.436218 1508.238892,417.044525 
	C1491.979614,429.615265 1475.778564,442.370514 1460.582764,456.180603 
	C1440.401001,474.521851 1420.485718,493.270752 1401.793091,513.104797 
	C1381.900879,534.211731 1362.979614,556.311951 1344.721313,578.858643 
	C1325.943604,602.046509 1308.207153,626.097900 1290.541748,650.158142 
	C1280.251343,664.173767 1270.966919,678.929932 1261.295776,693.396912 
	C1259.370605,696.276794 1257.744629,699.356750 1255.900391,702.706665 
	C1251.292725,700.421021 1246.703613,697.872131 1242.253052,695.100891 
	C1236.208496,691.336914 1230.269775,687.402710 1223.779053,683.214600 
	C1230.264648,673.528442 1236.490479,664.004089 1242.950195,654.640991 
	C1250.651367,643.478088 1258.302368,632.265503 1266.438599,621.422180 
	C1274.388916,610.826843 1282.856323,600.615417 1291.213745,590.330444 
	C1312.719116,563.865234 1335.749023,538.767517 1360.423340,515.252502 
	C1373.496582,502.793518 1387.213745,490.969391 1401.118164,479.434692 
	C1414.501465,468.332245 1428.055542,457.327911 1442.346313,447.455292 
	C1458.684570,436.168091 1475.543579,425.506287 1492.875732,415.824707 
	C1508.166260,407.283508 1524.415771,400.458008 1540.258667,392.909973 
	C1540.942749,392.584076 1541.794434,392.609497 1542.779785,392.718445 
z"/>
<path fill="#2A2A2D" opacity="1.000000" stroke="none" 
	d="
M558.250244,1089.744385 
	C548.755615,1089.673828 539.727478,1089.458496 530.215454,1089.306641 
	C526.749451,1089.306030 523.764404,1089.303833 520.785950,1089.163452 
	C516.412292,1088.957275 513.916321,1086.384277 513.989502,1082.293091 
	C514.064087,1078.124634 516.514099,1076.044067 521.062683,1075.947632 
	C523.791992,1075.889771 526.513245,1075.453613 529.634094,1075.013184 
	C544.321716,1075.209106 558.635193,1075.200684 572.900757,1076.024292 
	C608.576477,1078.083862 644.279846,1079.943237 679.878235,1082.982544 
	C710.330627,1085.582520 740.687378,1089.434814 771.020142,1093.258545 
	C790.462341,1095.709473 809.784485,1099.113525 829.580200,1102.046143 
	C841.028992,1104.120850 852.074463,1106.158447 863.083435,1108.377075 
	C882.385803,1112.266968 901.665894,1116.267578 921.354370,1120.262207 
	C923.113464,1120.826538 924.440186,1121.473877 925.839661,1121.851196 
	C929.914246,1122.949341 931.516418,1125.784180 930.883484,1129.660156 
	C930.225403,1133.689453 927.433472,1135.307617 923.382263,1135.202393 
	C921.196655,1135.145752 918.998108,1135.591553 916.778687,1136.235107 
	C915.093506,1135.380127 913.605103,1133.371338 911.749084,1132.938354 
	C898.976624,1129.958862 886.127258,1127.308960 872.545776,1124.335938 
	C870.638977,1123.936523 869.488525,1123.758301 868.339478,1123.571167 
	C832.078674,1117.670044 795.888672,1111.279175 759.534424,1106.024902 
	C731.721985,1102.005249 703.724915,1099.203003 675.765076,1096.289673 
	C660.887939,1094.739502 645.915649,1094.103394 630.986267,1093.054688 
	C618.213196,1092.226318 605.447937,1091.239258 592.664795,1090.617065 
	C581.359070,1090.066650 570.033569,1089.922852 558.250244,1089.744385 
z"/>
<path fill="#CCCCCC" opacity="1.000000" stroke="none" 
	d="
M294.002808,593.378357 
	C297.426697,591.292542 300.854187,589.412292 304.426147,587.865723 
	C310.641876,585.174500 316.946777,582.689148 323.577820,580.100342 
	C329.758881,593.993347 335.506226,607.933350 341.408722,621.807373 
	C353.546112,650.336670 365.777802,678.825806 377.941681,707.343872 
	C380.022186,712.221497 381.959076,717.160400 384.012939,722.429626 
	C373.380310,724.461975 363.159119,727.519836 353.371094,732.978638 
	C349.637512,724.594299 346.393127,716.091125 342.843231,707.717529 
	C327.879761,672.421021 312.830017,637.161011 297.794403,601.895081 
	C296.622131,599.145508 295.315582,596.453125 294.002808,593.378357 
z"/>
<path fill="#AA4302" opacity="1.000000" stroke="none" 
	d="
M978.710815,631.633240 
	C962.685303,627.723022 946.879578,622.506958 930.669861,619.396484 
	C914.673157,616.326965 898.267761,615.387756 882.052612,613.366455 
	C912.901611,612.446350 943.703552,612.272949 974.501221,618.980408 
	C976.191956,623.067932 977.472778,627.158813 978.710815,631.633240 
z"/>
<path fill="#AA4302" opacity="1.000000" stroke="none" 
	d="
M946.091187,1036.710327 
	C933.452759,1027.532837 918.922302,1022.907043 904.097229,1019.058533 
	C898.365295,1017.570557 892.494507,1016.618103 886.580566,1014.478577 
	C888.652832,1014.326294 890.773987,1013.809937 892.789673,1014.080200 
	C907.033386,1015.990112 921.281250,1017.900696 935.469116,1020.177185 
	C939.835205,1020.877747 944.018372,1022.718445 948.689514,1024.047119 
	C948.165527,1028.172974 947.237427,1032.288940 946.091187,1036.710327 
z"/>
<path fill="#AA4302" opacity="1.000000" stroke="none" 
	d="
M987.148071,814.044922 
	C986.750183,816.731079 986.186646,819.067688 985.364380,821.697144 
	C980.282532,820.335571 975.569885,818.125488 970.613770,817.138672 
	C959.287720,814.883606 947.861389,813.101257 936.437378,811.382629 
	C931.077148,810.576172 925.627991,810.360779 920.228027,809.549194 
	C942.051392,807.210022 963.889709,807.641296 986.167236,808.980103 
	C986.725708,810.539856 986.854065,812.117615 987.148071,814.044922 
z"/>
<path fill="#CCCCCC" opacity="1.000000" stroke="none" 
	d="
M414.786102,852.106506 
	C414.338074,846.322693 414.109375,840.528381 414.258789,834.743835 
	C414.293976,833.381409 415.310425,831.720886 416.382965,830.769897 
	C419.469818,828.032776 422.816193,825.588318 426.386047,822.972046 
	C429.885010,829.558594 433.058594,836.202026 436.431732,843.263245 
	C428.843018,846.413147 421.993286,849.256409 414.786102,852.106506 
z"/>
<path fill="#AA4302" opacity="1.000000" stroke="none" 
	d="
M497.170502,1408.364502 
	C518.456238,1407.990967 539.263977,1410.998901 559.061523,1414.781250 
	C538.918823,1416.148560 518.033020,1417.566162 496.741943,1419.023193 
	C496.576477,1415.638428 496.816254,1412.214111 497.170502,1408.364502 
z"/>
<path fill="#AA4302" opacity="1.000000" stroke="none" 
	d="
M508.898254,630.217346 
	C528.664062,627.171265 548.233215,625.814880 565.622192,628.016479 
	C552.162964,630.724182 536.600952,633.750183 521.095032,637.040039 
	C516.585205,637.996826 512.235413,639.708130 507.414825,641.095337 
	C507.568390,637.592346 508.119415,634.067688 508.898254,630.217346 
z"/>
<path fill="#AA4302" opacity="1.000000" stroke="none" 
	d="
M526.072205,933.393799 
	C543.079590,932.943298 559.994995,932.943298 575.053833,932.943298 
	C560.558533,936.303772 544.155518,940.106506 527.368530,943.981079 
	C526.649780,940.650085 526.315002,937.247253 526.072205,933.393799 
z"/>
<path fill="#CCCCCC" opacity="1.000000" stroke="none" 
	d="
M414.818604,980.914246 
	C414.709778,981.131409 414.438141,981.272217 414.235443,981.163757 
	C414.304382,980.914490 414.655762,980.837891 414.818604,980.914246 
z"/>
<path fill="#522014" opacity="1.000000" stroke="none" 
	d="
M818.098755,856.942627 
	C818.784851,877.411621 819.471008,897.880676 819.951965,918.976318 
	C819.256958,919.619568 818.734436,919.757629 818.282104,919.635498 
	C792.373596,912.642151 767.910706,915.688721 744.915649,929.863708 
	C743.385437,930.807007 740.650696,930.837646 738.880798,930.188843 
	C721.849915,923.946228 704.252380,923.679199 686.642517,925.725037 
	C675.643127,927.002930 664.826599,929.855042 653.928040,932.000854 
	C655.223389,905.450439 659.857788,879.602173 670.232117,854.979309 
	C670.987976,853.185303 672.192139,851.580139 673.908936,849.853088 
	C721.846802,864.400818 769.584473,868.491638 818.098755,856.942627 
z"/>
<path fill="#ED3838" opacity="1.000000" stroke="none" 
	d="
M653.651978,932.309814 
	C664.826599,929.855042 675.643127,927.002930 686.642517,925.725037 
	C704.252380,923.679199 721.849915,923.946228 738.880798,930.188843 
	C740.650696,930.837646 743.385437,930.807007 744.915649,929.863708 
	C767.910706,915.688721 792.373596,912.642151 818.282104,919.635498 
	C818.734436,919.757629 819.256958,919.619568 820.066956,919.414673 
	C824.583374,933.788391 828.779602,948.350464 832.644287,963.418091 
	C828.260437,965.840881 824.255310,967.866272 820.148315,969.658203 
	C788.010620,983.679932 754.587341,989.709229 719.522095,986.208374 
	C696.282104,983.888245 674.373108,977.121094 653.213623,967.550659 
	C653.133423,962.992249 652.960144,958.433228 652.994324,953.875671 
	C653.047424,946.789490 653.241577,939.704285 653.651978,932.309814 
z"/>
<path fill="#FEFDFB" opacity="1.000000" stroke="none" 
	d="
M675.323120,775.732300 
	C659.333984,773.882874 648.229004,764.950806 640.995728,751.986938 
	C622.563660,718.951904 622.295166,685.306824 640.713989,652.118286 
	C646.736877,641.265747 655.699768,632.951965 668.308777,629.788269 
	C683.258911,626.037048 695.475403,631.266418 705.738770,641.893311 
	C718.680786,655.293762 724.551270,672.017700 726.528442,690.044250 
	C728.823975,710.973206 726.115356,731.273438 715.485229,749.911255 
	C710.296570,759.008362 703.834473,767.257812 693.944946,771.394531 
	C688.266724,773.769775 681.845276,774.368347 675.323120,775.732300 
M687.779541,737.438049 
	C707.122925,725.186218 708.788208,685.624084 690.904419,669.425415 
	C681.894714,661.264648 669.943787,662.055725 661.740601,671.244995 
	C647.931458,686.714172 647.878540,717.058533 661.633484,732.660400 
	C668.752869,740.735718 677.369568,742.490967 687.779541,737.438049 
z"/>
<path fill="#FEFDFB" opacity="1.000000" stroke="none" 
	d="
M859.994385,750.966919 
	C854.348389,757.253174 849.668579,764.327576 843.230408,768.956543 
	C827.858398,780.008911 809.044312,777.393005 795.154114,763.552856 
	C783.507385,751.948059 777.344727,737.544495 774.518311,721.678223 
	C770.212769,697.509033 772.482239,674.096680 785.460205,652.781128 
	C789.348633,646.394531 794.740723,640.402710 800.705200,635.901123 
	C816.829895,623.731201 837.579224,626.948059 851.752441,642.766174 
	C864.283142,656.751221 870.108032,673.591370 871.774963,691.835449 
	C873.658386,712.448059 870.801514,732.379333 859.994385,750.966919 
M839.663391,731.121643 
	C846.381470,722.206543 848.744141,711.911133 848.447327,701.050781 
	C848.120850,689.102783 845.045105,677.968506 835.955078,669.425903 
	C827.660034,661.630493 816.327576,661.924072 808.216125,669.930725 
	C793.391541,684.563721 792.397522,716.416321 806.276917,732.067749 
	C816.403931,743.487549 828.717590,743.343445 839.663391,731.121643 
z"/>
<path fill="#FEFDFB" opacity="1.000000" stroke="none" 
	d="
M653.138550,967.974854 
	C674.373108,977.121094 696.282104,983.888245 719.522095,986.208374 
	C754.587341,989.709229 788.010620,983.679932 820.148315,969.658203 
	C824.255310,967.866272 828.260437,965.840881 832.657471,963.783386 
	C836.249023,969.035828 839.495911,974.428589 843.279358,980.712524 
	C837.902344,984.075867 832.685486,987.808350 827.066589,990.781067 
	C770.889282,1020.502380 714.265625,1021.758667 657.364380,992.903625 
	C655.587524,992.002625 653.832642,989.338074 653.643066,987.345703 
	C653.045776,981.068604 653.200134,974.719971 653.138550,967.974854 
z"/>
<path fill="#FEFDFB" opacity="1.000000" stroke="none" 
	d="
M818.166382,856.546448 
	C769.584473,868.491638 721.846802,864.400818 674.226196,849.686401 
	C677.877075,842.994568 681.847168,836.379272 686.110535,829.958801 
	C686.560791,829.280762 688.855225,829.357910 690.091614,829.739929 
	C720.610413,839.170837 751.812134,843.250610 783.662720,840.795410 
	C794.708130,839.943970 805.617371,837.323853 816.588135,835.507568 
	C817.714417,835.321106 818.836243,835.107483 820.663879,834.780579 
	C819.824341,842.164307 819.029175,849.157288 818.166382,856.546448 
z"/>
<path fill="#2A2A2D" opacity="1.000000" stroke="none" 
	d="
M841.588379,559.927185 
	C852.822449,561.596069 863.618042,563.457336 874.460144,564.990356 
	C881.473450,565.981934 881.774231,565.800415 880.912964,572.698853 
	C879.869019,581.059570 878.309570,589.355957 876.848877,598.454407 
	C871.021484,596.592346 865.864990,594.944702 860.346313,593.295166 
	C843.763489,587.872253 827.544006,582.447571 811.321167,577.032837 
	C808.014038,575.929016 804.761292,574.512939 801.364380,573.862732 
	C796.521179,572.935669 795.158142,570.455505 796.291565,565.828857 
	C797.193542,562.146790 797.613098,558.346497 798.404724,553.664856 
	C812.791565,555.789490 826.980652,557.884949 841.588379,559.927185 
z"/>
<path fill="#2A2A2D" opacity="1.000000" stroke="none" 
	d="
M614.737305,582.374146 
	C613.872131,576.898132 613.099426,571.850769 612.240662,566.241028 
	C640.150024,562.001770 667.623962,557.828674 695.718872,553.561279 
	C696.575745,559.247437 697.587646,564.267456 697.906677,569.331116 
	C697.981750,570.522217 695.947266,572.541443 694.496399,573.029358 
	C672.309387,580.490295 650.060242,587.766602 627.819641,595.067810 
	C624.536255,596.145691 621.222412,597.130859 617.229004,598.375000 
	C616.379089,592.858521 615.604492,587.830627 614.737305,582.374146 
z"/>
<path fill="#FEAB71" opacity="1.000000" stroke="none" 
	d="
M640.831055,793.590088 
	C650.153748,792.128540 658.437317,793.860046 665.877502,798.954773 
	C676.338379,806.117859 676.170227,819.070435 665.630249,826.236511 
	C652.802002,834.958557 634.086304,833.821472 624.188782,823.718872 
	C616.638611,816.012268 617.803345,804.560547 627.114380,799.115540 
	C631.202271,796.724915 635.969238,795.495422 640.831055,793.590088 
z"/>
<path fill="#FEAB71" opacity="1.000000" stroke="none" 
	d="
M844.379761,802.031128 
	C856.934631,799.825439 868.691162,799.379700 878.113953,809.482361 
	C883.277283,815.018250 883.667786,823.680664 878.864075,829.536133 
	C868.943176,841.629028 843.557190,842.513977 832.687866,831.145935 
	C825.751770,823.891479 826.631836,812.900452 834.816162,807.159241 
	C837.651794,805.170166 840.915222,803.790894 844.379761,802.031128 
z"/>
<path fill="#AA4302" opacity="1.000000" stroke="none" 
	d="
M615.627319,476.016083 
	C621.626648,472.485199 628.064697,468.958771 634.856079,465.430176 
	C636.991577,466.287506 638.691772,467.448334 640.568848,467.958038 
	C653.772705,471.543488 667.012939,474.994781 680.078918,479.319916 
	C658.727722,477.064117 637.518860,474.342377 615.627319,476.016083 
z"/>
<path fill="#CCCCCC" opacity="1.000000" stroke="none" 
	d="
M631.044495,1093.445801 
	C645.915649,1094.103394 660.887939,1094.739502 675.765076,1096.289673 
	C703.724915,1099.203003 731.721985,1102.005249 759.534424,1106.024902 
	C795.888672,1111.279175 832.078674,1117.670044 868.339478,1123.571167 
	C869.488525,1123.758301 870.638977,1123.936523 872.151367,1124.297607 
	C872.011475,1125.639893 871.111877,1126.787720 871.064758,1127.969482 
	C869.987061,1155.008911 866.697083,1181.795776 860.930847,1208.206543 
	C853.948730,1240.186768 843.798218,1271.006470 824.548401,1298.064087 
	C808.601990,1320.478271 787.800415,1335.768677 760.310303,1340.644165 
	C748.326904,1342.769653 736.292664,1342.177612 724.170898,1340.368408 
	C708.175964,1337.980835 692.624939,1334.288086 677.602722,1328.336914 
	C657.948242,1320.551025 641.219971,1308.986450 630.120789,1290.554077 
	C622.963867,1278.668579 619.644165,1265.518188 619.024048,1251.708618 
	C618.004944,1229.012085 623.750488,1207.323364 629.044250,1185.570923 
	C634.626587,1162.632568 635.943481,1139.292847 634.818848,1115.833984 
	C634.465332,1108.459229 632.390015,1101.166992 631.044495,1093.445801 
z"/>
<path fill="#FEFEFE" opacity="1.000000" stroke="none" 
	d="
M587.050293,347.172607 
	C586.588501,346.948944 586.161316,346.316589 585.833008,345.313843 
	C586.316284,345.550232 586.700623,346.157074 587.050293,347.172607 
z"/>
<path fill="#26292F" opacity="1.000000" stroke="none" 
	d="
M687.468750,737.648926 
	C677.369568,742.490967 668.752869,740.735718 661.633484,732.660400 
	C647.878540,717.058533 647.931458,686.714172 661.740601,671.244995 
	C669.943787,662.055725 681.894714,661.264648 690.904419,669.425415 
	C708.788208,685.624084 707.122925,725.186218 687.468750,737.648926 
z"/>
<path fill="#26292F" opacity="1.000000" stroke="none" 
	d="
M839.438232,731.401855 
	C828.717590,743.343445 816.403931,743.487549 806.276917,732.067749 
	C792.397522,716.416321 793.391541,684.563721 808.216125,669.930725 
	C816.327576,661.924072 827.660034,661.630493 835.955078,669.425903 
	C845.045105,677.968506 848.120850,689.102783 848.447327,701.050781 
	C848.744141,711.911133 846.381470,722.206543 839.438232,731.401855 
z"/>
</svg>